<?xml version="1.0" encoding="UTF-8" standalone="no"?>
<svg
   width="1600"
   height="678"
   viewBox="0 0 423.33333 179.38789"
   version="1.1"
   id="svg8"
   sodipodi:docname="logo - Copia.svg"
   inkscape:version="1.2 (dc2aedaf03, 2022-05-15)"
   inkscape:export-filename="D:\Piccolo Hacker\Dev\monopriv4gabgvideo\static\img\logo1600x1600.png"
   inkscape:export-xdpi="96"
   inkscape:export-ydpi="96"
   xmlns:inkscape="http://www.inkscape.org/namespaces/inkscape"
   xmlns:sodipodi="http://sodipodi.sourceforge.net/DTD/sodipodi-0.dtd"
   xmlns="http://www.w3.org/2000/svg"
   xmlns:svg="http://www.w3.org/2000/svg"
   xmlns:rdf="http://www.w3.org/1999/02/22-rdf-syntax-ns#"
   xmlns:cc="http://creativecommons.org/ns#"
   xmlns:dc="http://purl.org/dc/elements/1.1/">
  <sodipodi:namedview
     pagecolor="#ffffff"
     bordercolor="#666666"
     borderopacity="1"
     objecttolerance="10"
     gridtolerance="10"
     guidetolerance="10"
     inkscape:pageopacity="0"
     inkscape:pageshadow="2"
     inkscape:window-width="1920"
     inkscape:window-height="1027"
     id="namedview20"
     showgrid="false"
     inkscape:zoom="0.53749999"
     inkscape:cx="667.90699"
     inkscape:cy="427.90698"
     inkscape:window-x="-8"
     inkscape:window-y="22"
     inkscape:window-maximized="1"
     inkscape:current-layer="layer1"
     inkscape:document-rotation="0"
     inkscape:showpageshadow="2"
     inkscape:pagecheckerboard="true"
     inkscape:deskcolor="#d1d1d1" />
  <defs
     id="defs2">
    <filter
       style="color-interpolation-filters:sRGB"
       id="filter1301"
       x="-0.015284652"
       width="1.0305693"
       y="-0.037451018"
       height="1.0749021">
      <feGaussianBlur
         stdDeviation="2.489025"
         id="feGaussianBlur1303" />
    </filter>
    <filter
       style="color-interpolation-filters:sRGB"
       id="filter1385"
       x="-0.39552286"
       width="1.7910457"
       y="-0.96912473"
       height="2.9382493">
      <feGaussianBlur
         stdDeviation="64.408816"
         id="feGaussianBlur1387" />
    </filter>
    <filter
       inkscape:collect="always"
       style="color-interpolation-filters:sRGB"
       id="filter1326"
       x="-0.026603888"
       width="1.0532078"
       y="-0.065556083"
       height="1.1311122">
      <feGaussianBlur
         inkscape:collect="always"
         stdDeviation="4.3323032"
         id="feGaussianBlur1328" />
    </filter>
  </defs>
  <metadata
     id="metadata5">
    <rdf:RDF>
      <cc:Work
         rdf:about="">
        <dc:format>image/svg+xml</dc:format>
        <dc:type
           rdf:resource="http://purl.org/dc/dcmitype/StillImage" />
      </cc:Work>
    </rdf:RDF>
  </metadata>
  <g
     inkscape:groupmode="layer"
     id="layer3"
     inkscape:label="1">
    <rect
       style="fill:#ff413e;fill-opacity:1;stroke:none;stroke-width:1.26974;filter:url(#filter1326)"
       id="rect1145"
       width="390.82736"
       height="158.60507"
       x="16.437593"
       y="11.212476" />
  </g>
  <g
     inkscape:groupmode="layer"
     id="layer1"
     inkscape:label="2">
    <g
       id="layer5"
       transform="translate(-25.104651,-128.34412)">
      <path
         style="fill:#ffffff;fill-opacity:1;stroke:#000000;stroke-width:1.79121;stroke-linecap:butt;stroke-linejoin:miter;stroke-miterlimit:4;stroke-dasharray:none;stroke-opacity:1"
         d="m 181.41856,184.60712 v 90.14957 l 133.24688,-46.99673 z"
         id="path1430" />
    </g>
    <g
       id="layer2"
       style="display:inline"
       transform="translate(-13.290698,-128.34412)">
      <g
         aria-label="GABG"
         id="text1392"
         style="font-size:35.2778px;line-height:1.25;stroke-width:0.264583">
        <path
           d="m 200.12259,169.3473 v 6.20118 q -1.65365,0.91295 -3.3073,1.37804 -1.63642,0.46509 -3.27284,0.46509 -2.32544,0 -4.09967,-0.68902 -1.757,-0.68902 -2.98001,-1.92926 -1.22301,-1.24023 -1.91203,-2.7733 -0.67179,-1.53307 -0.67179,-3.89296 v -2.65273 q 0,-2.37711 1.17133,-4.61643 1.18856,-2.25654 3.2384,-3.4451 2.04983,-1.18855 4.4614,-1.18855 3.49677,0 5.90834,1.91202 0,-0.84404 0.0517,-1.0163 0.0689,-0.17225 0.25838,-0.29283 0.18948,-0.13781 0.43064,-0.13781 0.31005,0 0.51676,0.22394 0.20671,0.22393 0.20671,0.74069 v 3.27284 q 0,0.53399 -0.20671,0.75793 -0.20671,0.2067 -0.51676,0.2067 -0.29284,0 -0.49954,-0.18948 -0.18948,-0.2067 -0.20671,-0.70624 -0.10335,-1.46417 -1.91203,-2.39435 -1.79145,-0.93017 -3.91018,-0.93017 -1.99816,0 -3.61736,0.8785 -1.60197,0.86127 -2.99723,3.30729 -0.93018,1.60197 -0.93018,3.63458 v 2.6355 q 0,3.60013 2.20486,5.71886 2.20487,2.11874 6.0806,2.11874 1.30914,0 2.4288,-0.27561 1.11965,-0.27561 2.61827,-0.96463 v -5.35713 h -4.97817 q -0.51676,0 -0.74069,-0.18948 -0.22393,-0.2067 -0.22393,-0.53399 0,-0.32728 0.22393,-0.53399 0.22393,-0.2067 0.74069,-0.2067 l 6.9591,0.0172 q 0.51677,0 0.7407,0.20671 0.22393,0.18948 0.22393,0.51676 0,0.22393 -0.13781,0.41341 -0.1378,0.18949 -0.31005,0.25839 -0.17226,0.0517 -1.03353,0.0517 z"
           style="font-family:monospace;-inkscape-font-specification:monospace"
           id="path181" />
        <path
           d="m 218.19212,170.088 h -9.50847 l -1.94648,5.28822 h 2.77331 q 0.51676,0 0.74069,0.20671 0.22394,0.18948 0.22394,0.51677 0,0.31005 -0.22394,0.51676 -0.22393,0.20671 -0.74069,0.20671 h -5.40881 q -0.51676,0 -0.74069,-0.20671 -0.22393,-0.20671 -0.22393,-0.51676 0,-0.32729 0.22393,-0.51677 0.22393,-0.20671 0.74069,-0.20671 h 1.11966 l 6.39066,-17.25994 h -4.27192 q -0.51677,0 -0.7407,-0.18948 -0.22393,-0.2067 -0.22393,-0.53399 0,-0.32728 0.22393,-0.51676 0.22393,-0.20671 0.7407,-0.20671 h 7.28638 l 7.06245,18.70688 h 1.11966 q 0.51676,0 0.74069,0.20671 0.22393,0.18948 0.22393,0.51677 0,0.31005 -0.22393,0.51676 -0.22393,0.20671 -0.74069,0.20671 h -5.39158 q -0.53399,0 -0.75792,-0.20671 -0.22394,-0.20671 -0.22394,-0.51676 0,-0.32729 0.22394,-0.51677 0.22393,-0.20671 0.75792,-0.20671 h 2.75608 z m -0.55121,-1.44694 -3.99631,-10.52478 h -0.534 l -3.87573,10.52478 z"
           style="font-family:monospace;-inkscape-font-specification:monospace"
           id="path183" />
        <path
           d="m 228.42406,175.37622 v -17.25994 h -1.94648 q -0.51676,0 -0.74069,-0.18948 -0.22393,-0.2067 -0.22393,-0.53399 0,-0.32728 0.22393,-0.51676 0.22393,-0.20671 0.74069,-0.20671 h 9.09506 q 2.7044,0 4.3925,1.56752 1.70533,1.5503 1.70533,3.65181 0,2.65272 -2.84221,4.28914 2.25654,0.8096 3.30729,2.15319 1.05076,1.34359 1.05076,2.96278 0,1.44694 -0.68902,2.65273 -0.68902,1.18856 -2.11874,2.03261 -1.41249,0.84405 -3.08336,0.84405 h -10.81761 q -0.51676,0 -0.74069,-0.20671 -0.22393,-0.20671 -0.22393,-0.51676 0,-0.32729 0.22393,-0.51677 0.22393,-0.20671 0.74069,-0.20671 z m 1.44695,-9.74962 h 5.11597 q 1.63642,0 2.99723,-0.60289 1.05076,-0.48232 1.63642,-1.39527 0.58567,-0.91295 0.58567,-1.86035 0,-1.36082 -1.27469,-2.4977 -1.27468,-1.15411 -3.32452,-1.15411 h -5.73608 z m 0,9.74962 h 7.32083 q 1.39526,0 2.42879,-0.62011 1.03353,-0.62012 1.56752,-1.53307 0.53399,-0.91295 0.53399,-1.89481 0,-1.10243 -0.77514,-2.13596 -0.75793,-1.03353 -2.11874,-1.56752 -1.36081,-0.53399 -3.75516,-0.53399 h -5.20209 z"
           style="font-family:monospace;-inkscape-font-specification:monospace"
           id="path185" />
        <path
           d="m 263.63296,169.3473 v 6.20118 q -1.65364,0.91295 -3.30729,1.37804 -1.63642,0.46509 -3.27284,0.46509 -2.32545,0 -4.09967,-0.68902 -1.757,-0.68902 -2.98001,-1.92926 -1.22301,-1.24023 -1.91203,-2.7733 -0.67179,-1.53307 -0.67179,-3.89296 v -2.65273 q 0,-2.37711 1.17133,-4.61643 1.18856,-2.25654 3.23839,-3.4451 2.04983,-1.18855 4.4614,-1.18855 3.49678,0 5.90835,1.91202 0,-0.84404 0.0517,-1.0163 0.0689,-0.17225 0.25838,-0.29283 0.18948,-0.13781 0.43064,-0.13781 0.31006,0 0.51677,0.22394 0.2067,0.22393 0.2067,0.74069 v 3.27284 q 0,0.53399 -0.2067,0.75793 -0.20671,0.2067 -0.51677,0.2067 -0.29283,0 -0.49954,-0.18948 -0.18948,-0.2067 -0.2067,-0.70624 -0.10336,-1.46417 -1.91203,-2.39435 -1.79145,-0.93017 -3.91019,-0.93017 -1.99816,0 -3.61735,0.8785 -1.60197,0.86127 -2.99724,3.30729 -0.93017,1.60197 -0.93017,3.63458 v 2.6355 q 0,3.60013 2.20486,5.71886 2.20486,2.11874 6.0806,2.11874 1.30913,0 2.42879,-0.27561 1.11966,-0.27561 2.61828,-0.96463 v -5.35713 h -4.97817 q -0.51677,0 -0.7407,-0.18948 -0.22393,-0.2067 -0.22393,-0.53399 0,-0.32728 0.22393,-0.53399 0.22393,-0.2067 0.7407,-0.2067 l 6.9591,0.0172 q 0.51676,0 0.74069,0.20671 0.22393,0.18948 0.22393,0.51676 0,0.22393 -0.1378,0.41341 -0.1378,0.18949 -0.31006,0.25839 -0.17225,0.0517 -1.03353,0.0517 z"
           style="font-family:monospace;-inkscape-font-specification:monospace"
           id="path187" />
      </g>
    </g>
    <g
       id="g1425"
       transform="translate(-13.290698,-128.34412)">
      <g
         aria-label="Video"
         id="text1423"
         style="font-size:35.2778px;line-height:1.25;stroke-width:0.264583">
        <path
           d="m 198.15832,211.74663 -9.33622,25.64876 h -4.54753 l -9.33621,-25.64876 h 3.6518 l 8.0443,22.56539 8.04431,-22.56539 z"
           style="-inkscape-font-specification:sans-serif"
           id="path190" />
        <path
           d="m 205.27244,214.93335 h -3.6518 v -3.35897 h 3.6518 z m -0.2067,22.46204 h -3.2384 v -19.24088 h 3.2384 z"
           style="-inkscape-font-specification:sans-serif"
           id="path192" />
        <path
           d="m 227.07991,237.39539 h -3.23839 V 235.38 q -1.39526,1.20579 -2.91111,1.87758 -1.51584,0.6718 -3.29007,0.6718 -3.44509,0 -5.4777,-2.65273 -2.01538,-2.65272 -2.01538,-7.35528 0,-2.44602 0.68902,-4.35805 0.70624,-1.91203 1.8948,-3.25562 1.17133,-1.30914 2.72163,-1.99816 1.56752,-0.68902 3.23839,-0.68902 1.51584,0 2.68718,0.32729 1.17133,0.31006 2.46324,0.98185 v -8.33714 h 3.23839 z m -3.23839,-4.73701 v -11.04154 q -1.30914,-0.58567 -2.34267,-0.8096 -1.03353,-0.22393 -2.25654,-0.22393 -2.72162,0 -4.23747,1.8948 -1.51584,1.89481 -1.51584,5.37435 0,3.42788 1.17133,5.21933 1.17134,1.77422 3.75516,1.77422 1.37804,0 2.79053,-0.60289 1.41249,-0.62012 2.6355,-1.58474 z"
           style="-inkscape-font-specification:sans-serif"
           id="path194" />
        <path
           d="M 249.55918,228.11085 H 235.3826 q 0,1.77422 0.53399,3.10059 0.53399,1.30913 1.46417,2.15318 0.89572,0.82682 2.11873,1.24024 1.24024,0.41341 2.72163,0.41341 1.9637,0 3.94463,-0.77515 1.99816,-0.79237 2.84221,-1.55029 h 0.17226 v 3.53122 q -1.63643,0.68902 -3.34175,1.15411 -1.70532,0.46509 -3.5829,0.46509 -4.78869,0 -7.47586,-2.58382 -2.68718,-2.60105 -2.68718,-7.37251 0,-4.71979 2.5666,-7.49309 2.58382,-2.77331 6.78684,-2.77331 3.89296,0 5.99447,2.27377 2.11874,2.27376 2.11874,6.45956 z m -3.15227,-2.48047 q -0.0172,-2.54938 -1.29191,-3.94464 -1.25746,-1.39526 -3.84128,-1.39526 -2.60105,0 -4.15135,1.53306 -1.53307,1.53307 -1.73977,3.80684 z"
           style="-inkscape-font-specification:sans-serif"
           id="path196" />
        <path
           d="m 270.8671,227.78356 q 0,4.70256 -2.41156,7.42419 -2.41157,2.72163 -6.45956,2.72163 -4.08244,0 -6.49401,-2.72163 -2.39435,-2.72163 -2.39435,-7.42419 0,-4.70256 2.39435,-7.42418 2.41157,-2.73886 6.49401,-2.73886 4.04799,0 6.45956,2.73886 2.41156,2.72162 2.41156,7.42418 z m -3.34174,0 q 0,-3.73793 -1.46417,-5.5466 -1.46416,-1.82591 -4.06521,-1.82591 -2.6355,0 -4.09967,1.82591 -1.44694,1.80867 -1.44694,5.5466 0,3.61736 1.46417,5.49493 1.46416,1.86036 4.08244,1.86036 2.58382,0 4.04799,-1.84313 1.48139,-1.86035 1.48139,-5.51216 z"
           style="-inkscape-font-specification:sans-serif"
           id="path198" />
      </g>
    </g>
  </g>
</svg>
